<?xml version="1.0" encoding="utf-8"?>
<!-- Generator: Adobe Illustrator 26.3.1, SVG Export Plug-In . SVG Version: 6.00 Build 0)  -->
<svg version="1.1" id="Capa_1" xmlns="http://www.w3.org/2000/svg" xmlns:xlink="http://www.w3.org/1999/xlink" x="0px" y="0px"
	 viewBox="0 0 532 532" style="enable-background:new 0 0 532 532;" xml:space="preserve">
<style type="text/css">
	.st0{fill:#EF9A9A;}
	.st1{fill:#2F2E41;}
	.st2{fill:#FFFFFF;}
</style>
<g>
	<g>
		<circle class="st0" cx="270.8" cy="260.9" r="86.3"/>
		<polygon class="st0" points="199.3,366.6 217.3,320.6 310.3,306.6 320.3,408.4 226.3,410.4 		"/>
	</g>
	<path class="st1" d="M357.9,276.9c-1.1,4.5-3.4,15.2-6.9,15.2c-2.9,0-5.7-46.3-2.8-54c3.3-8.8-5.4-20-12-25.7
		c-11.8-10.3-38,11.8-64.7,1.8c-0.7-0.3-0.6-0.2-9-3.6c-25.9-10.3-27.3-10.6-28.7-10.8c-12.6-1.2-27.9,9-34.1,21.6
		c-6.5,13-1.1,24.2-7.2,55.7c-0.7,3.7-1.8,8.9-3.6,9c-3.2,0.1-6.4-17-7.2-21.6c-3.4-18.9-6.8-37,0-57.5c0.7-2.2,5.3-10.5,14.4-26.9
		c13.1-23.7,19.7-35.6,21.6-37.7c13.6-15.3,38.4-29.3,59.3-23.3c10.5,3,8.6,7.9,21.6,12.6c23,8.4,43-1.9,46.7,5.4
		c2,3.8-3.5,7-3.6,14.4c-0.1,12.6,15.8,16.3,25.1,28.7C371.8,186.8,380.4,186.9,357.9,276.9L357.9,276.9z"/>
</g>
<path class="st2" d="M467.2,442.6c-3.5,3.9-7.1,7.7-10.8,11.5c-50.2,50.2-117,77.9-188.1,77.9c-61.4,0-119.6-20.7-166.8-58.7
	c0,0-0.1,0-0.1-0.1c-6.2-5-12.3-10.4-18.1-16.1c0.1-0.9,0.2-1.8,0.4-2.6c0.8-5.8,1.7-11.3,2.8-16.4c8.4-41.7,118.2-85.5,121.1-86.7
	h0.1c0,0,14.1,52.1,74.7,51.5c41.3-0.5,33.3-51.5,33.3-51.5s0.5,0.1,1.4,0.3c11.9,2.5,94.7,20.7,127.3,45.5
	c9.9,7.6,17.1,23.7,22.2,42.9C466.8,440.9,467,441.8,467.2,442.6z"/>
</svg>
