<?xml version="1.0" encoding="utf-8"?>
<!-- Generator: Adobe Illustrator 26.3.1, SVG Export Plug-In . SVG Version: 6.00 Build 0)  -->
<svg version="1.1" id="Capa_1" xmlns="http://www.w3.org/2000/svg" xmlns:xlink="http://www.w3.org/1999/xlink" x="0px" y="0px"
	 viewBox="0 0 883.4 518" style="enable-background:new 0 0 883.4 518;" xml:space="preserve">
<style type="text/css">
	.st0{fill:#F2F2F2;}
	.st1{fill:#FFFFFF;}
	.st2{fill:#CCCCCC;}
	.st3{fill:#3F3D56;}
	.st4{fill:#E0E0E0;}
</style>
<path class="st0" d="M786.9,465.5H146.1c-9.1,0-16.5-7.4-16.5-16.5V53.9c0-6.7,5.4-12.1,12.1-12.1h649.5c6.8,0,12.3,5.5,12.3,12.3
	V449C803.4,458.2,796,465.5,786.9,465.5z"/>
<path class="st1" d="M763.5,442.2H166.3c-8.8,0-15.9-6.7-15.9-14.9V83.2c0-6.1,5.3-11,11.8-11h605.3c6.6,0,12,5,12,11.2v343.9
	C779.4,435.5,772.3,442.2,763.5,442.2z"/>
<path class="st2" d="M803.2,53H129.3v-8.4c0-9.1,7.4-16.5,16.6-16.5h640.7c9.1,0,16.5,7.4,16.6,16.5V53z"/>
<circle class="st1" cx="159.4" cy="40.5" r="4.3"/>
<circle class="st1" cx="175.7" cy="40.5" r="4.3"/>
<circle class="st1" cx="191.9" cy="40.5" r="4.3"/>
<path class="st1" d="M261.6,378.2H112.8c-9.7,0-17.5-7.8-17.5-17.5V184.5c0-7.2,5.9-13.1,13.1-13.1h157.5c7.3,0,13.3,6,13.3,13.3
	v175.9C279.1,370.3,271.3,378.2,261.6,378.2z"/>
<path class="st3" d="M261.6,378.2H112.8c-9.7,0-17.5-7.8-17.5-17.5V184.5c0-7.2,5.9-13.1,13.1-13.1h157.5c7.3,0,13.3,6,13.3,13.3
	v175.9C279.1,370.3,271.3,378.2,261.6,378.2z M108.3,173.4c-6.1,0-11.1,5-11.1,11.1v176.2c0,8.6,6.9,15.5,15.5,15.5h148.8
	c8.6,0,15.5-6.9,15.5-15.5V184.7c0-6.2-5.1-11.3-11.3-11.3H108.3z"/>
<circle class="st4" cx="187.2" cy="253.3" r="30.7"/>
<path class="st4" d="M236.4,327H138v-0.3c0-18.9,15.3-34.2,34.2-34.2h30.1c18.9,0,34.2,15.3,34.2,34.2V327z"/>
<path class="st0" d="M417.6,345.5h319.8c8.8,0,16-7.2,16-16V184.9c0-8.8-7.2-16-16-16H417.6c-8.8,0-16,7.2-16,16v144.5
	C401.6,338.3,408.7,345.5,417.6,345.5z"/>
<path class="st1" d="M702.5,265.2h-255c-4.4,0-8-3.6-8-8s3.6-8,8-8h255c4.4,0,8,3.6,8,8S706.9,265.2,702.5,265.2z"/>
<path class="st1" d="M702.5,299.2h-255c-4.4,0-8-3.6-8-8s3.6-8,8-8h255c4.4,0,8,3.6,8,8S706.9,299.2,702.5,299.2z"/>
<path class="st1" d="M657.5,231.2h-210c-4.4,0-8-3.6-8-8s3.6-8,8-8h210c4.4,0,8,3.6,8,8S661.9,231.2,657.5,231.2z"/>
<path class="st2" d="M160,546H-79c-0.6,0-1-0.4-1-1c0-0.6,0.4-1,1-1h239c0.6,0,1,0.4,1,1C161,545.5,160.6,546,160,546z"/>
</svg>
